<!-- icon666.com - MILLIONS vector ICONS FREE --><svg id="Capa_1" enable-background="new 0 0 358.017 358.017" viewBox="0 0 358.017 358.017" xmlns="http://www.w3.org/2000/svg"><g><g><g><g><path d="m7.54 161.141c10.014-10.014 25.946-10.014 35.961 0l135.423 135.423 135.423-135.423c10.014-10.014 25.946-10.014 35.961 0 10.014 10.014 10.014 25.946 0 35.961l-153.404 153.404c-10.014 10.014-25.946 10.014-35.961 0l-153.403-153.403c-9.787-10.014-9.787-25.946 0-35.962z" fill="#000000" style="fill: rgb(255, 255, 255);"></path></g><g><path d="m7.54 7.511c10.014-10.014 25.946-10.014 35.961 0l135.423 135.423 135.422-135.423c10.014-10.014 25.946-10.014 35.961 0s10.014 25.946 0 35.961l-153.403 153.403c-10.014 10.014-25.946 10.014-35.961 0l-153.403-153.175c-9.787-10.015-9.787-26.174 0-36.189z" fill="#000000" style="fill: rgb(255, 255, 255);"></path></g></g></g></g></svg>